<svg xmlns="http://www.w3.org/2000/svg" viewBox="0 0 32 32" fill="none">
  <g transform="translate(1.725, 0)">
    <path d="M19.4832 18.7658H19.419C19.1416 17.7518 18.5589 16.8475 17.7496 16.1753C16.9404 15.5032 15.9438 15.0958 14.8949 15.0083C13.8461 14.9208 12.7956 15.1574 11.8859 15.6862C10.9763 16.2149 10.2513 17.0101 9.80937 17.9641C9.31719 17.8711 8.81118 17.8794 8.3223 17.9884C7.83342 18.0974 7.37195 18.3049 6.9661 18.5981C6.56026 18.8913 6.21858 19.2642 5.96196 19.6938C5.70534 20.1234 5.53917 20.6008 5.47363 21.0968L14.2577 26.1632L23.0689 21.0826C22.7609 20.3905 22.2578 19.8029 21.6211 19.3915C20.9844 18.9801 20.2415 18.7627 19.4832 18.7658Z" fill="#27D4DF"/>
    <path d="M12.8832 0.378702L1.46141 6.92881C1.02645 7.17828 0.665076 7.53791 0.413749 7.97142C0.162421 8.40493 0.0300329 8.89698 0.0299441 9.39792L3.09848e-06 22.5451C-0.000735743 23.0457 0.130672 23.5377 0.380982 23.9714C0.631292 24.4052 0.991659 24.7654 1.42576 25.0157L12.8162 31.6185C13.2496 31.8684 13.7414 32 14.2419 32C14.7425 32 15.2342 31.8684 15.6677 31.6185L27.0894 25.0683C27.5223 24.8188 27.8819 24.4599 28.1321 24.0278C28.3823 23.5957 28.5144 23.1055 28.5152 22.6064L28.5451 9.45203C28.5456 8.95165 28.4141 8.45998 28.1638 8.02652C27.9135 7.59306 27.5533 7.23311 27.1194 6.98292L15.7347 0.384397C15.3017 0.133578 14.8102 0.00100551 14.3097 5.69735e-06C13.8091 -0.000994115 13.3172 0.129614 12.8832 0.378702ZM21.6445 21.9286L15.6834 25.346C15.2493 25.5949 14.7572 25.7252 14.2566 25.724C13.7561 25.7227 13.2647 25.5899 12.8318 25.3389L6.87359 21.8873C6.4397 21.6371 6.07947 21.2771 5.82917 20.8437C5.57887 20.4102 5.44734 19.9185 5.44783 19.4182L5.46352 12.5448C5.46403 12.0454 5.59603 11.5549 5.84628 11.1225C6.09652 10.6902 6.45622 10.3311 6.88928 10.0814L12.8575 6.66396C13.291 6.41401 13.7827 6.28242 14.2833 6.28242C14.7838 6.28242 15.2755 6.41401 15.709 6.66396L21.6716 10.1099C22.1057 10.3602 22.466 10.7204 22.7163 11.1541C22.9666 11.5878 23.0981 12.0798 23.0973 12.5804L23.0816 19.4523C23.0822 19.955 22.9496 20.4489 22.6971 20.8839C22.4447 21.3188 22.0815 21.6792 21.6445 21.9286Z" fill="#0068FF"/>
  </g>
</svg>
